<?xml version="1.0" standalone="no"?>
<!DOCTYPE svg PUBLIC "-//W3C//DTD SVG 20010904//EN"
 "http://www.w3.org/TR/2001/REC-SVG-20010904/DTD/svg10.dtd">
<svg version="1.0" xmlns="http://www.w3.org/2000/svg"
 width="600.000000pt" height="600.000000pt" viewBox="0 0 600.000000 600.000000"
 preserveAspectRatio="xMidYMid meet">
<g transform="translate(0.000000,600.000000) scale(0.100000,-0.100000)"
fill="#000000" stroke="none">
<path d="M1444 4661 c-16 -16 3 -29 49 -35 115 -16 196 -81 217 -177 8 -39 10
-303 8 -964 -3 -910 -3 -910 -25 -950 -39 -73 -107 -116 -206 -130 -37 -6 -47
-11 -45 -24 2 -9 7 -15 11 -13 4 1 207 2 452 2 373 0 445 2 445 14 0 9 -17 16
-47 21 -70 10 -139 43 -173 81 -54 62 -60 105 -60 444 l0 305 85 85 85 85 24
-25 c13 -14 189 -218 391 -455 203 -236 407 -472 453 -522 142 -156 314 -290
449 -349 l56 -25 -6 -202 c-4 -137 -11 -218 -21 -252 -24 -80 -98 -139 -191
-152 -28 -3 -45 -11 -45 -19 0 -12 74 -14 435 -14 360 0 435 2 435 14 0 9 -18
15 -51 19 -72 9 -151 48 -184 92 -40 51 -55 134 -55 305 l0 146 63 2 c109 5
257 44 257 69 0 13 -9 15 -52 10 -109 -13 -249 22 -359 89 -138 83 -218 168
-754 799 -159 187 -352 414 -430 505 -77 91 -146 173 -154 182 -11 15 1 30
106 131 286 274 693 648 792 726 90 72 204 127 296 142 56 10 75 17 75 28 0
14 -46 16 -417 14 -347 -2 -419 -5 -421 -16 -2 -10 12 -16 45 -21 58 -7 110
-37 123 -70 26 -69 -29 -143 -388 -526 -162 -173 -634 -664 -642 -668 -10 -5
0 1033 11 1086 19 96 100 162 217 178 38 5 52 11 52 23 0 14 -42 16 -451 16
-248 0 -453 -2 -455 -4z m696 -36 c4 -3 -9 -23 -30 -46 -39 -40 -72 -117 -77
-174 -5 -71 -5 -954 1 -963 4 -6 2 -13 -3 -16 -21 -13 17 -86 45 -86 21 0 141
108 136 122 -1 5 1 7 6 6 4 -2 27 19 52 46 74 81 102 106 113 99 5 -3 7 -1 3
5 -3 6 20 36 51 68 32 32 57 62 56 66 -2 4 1 8 6 8 9 0 71 57 71 65 0 3 9 14
19 24 14 14 22 16 31 7 10 -8 11 -8 6 2 -9 15 12 44 25 36 5 -3 6 1 3 9 -3 8
2 17 11 21 10 3 13 11 9 18 -4 7 -4 10 0 6 9 -7 66 47 66 62 0 5 5 12 12 16 7
4 8 3 4 -4 -4 -7 -2 -12 3 -12 6 0 11 6 11 14 0 20 29 48 42 40 7 -5 8 -2 3 5
-4 8 1 18 14 27 12 9 19 20 16 25 -3 5 1 6 10 3 9 -4 15 -2 13 4 -5 15 41 72
57 72 8 0 15 5 15 11 0 5 5 7 12 3 6 -4 8 -3 5 3 -4 6 7 24 23 42 17 17 30 35
30 40 0 5 7 12 16 15 8 3 12 10 9 16 -3 5 -2 10 4 10 5 0 19 16 31 35 12 20
27 41 34 48 38 38 47 136 15 166 -41 38 -19 42 207 40 132 -1 217 -6 221 -12
3 -6 1 -7 -5 -3 -7 4 -12 4 -12 -1 0 -4 -18 -17 -40 -27 -22 -10 -48 -27 -59
-37 -11 -11 -23 -19 -26 -19 -4 0 -12 -6 -20 -12 -7 -7 -34 -31 -60 -53 -26
-22 -61 -52 -77 -67 -16 -16 -31 -28 -32 -28 -2 0 -23 -19 -47 -43 -24 -23
-77 -71 -117 -106 -40 -36 -117 -108 -171 -160 -98 -97 -179 -166 -192 -166
-4 0 -11 -4 -16 -9 -5 -5 -2 -6 6 -1 9 5 12 3 9 -6 -3 -8 -12 -13 -21 -13 -9
1 -15 -1 -13 -5 3 -4 -7 -16 -20 -26 -14 -11 -37 -33 -52 -50 -51 -56 -95 -94
-103 -89 -5 3 -6 -1 -3 -9 3 -8 1 -18 -5 -22 -26 -16 -2 -73 59 -135 8 -9 33
-38 55 -65 22 -27 49 -57 59 -67 11 -10 17 -18 14 -18 -4 0 6 -13 20 -29 66
-70 158 -176 173 -198 8 -13 19 -20 23 -16 4 5 6 4 4 -2 -4 -14 27 -56 36 -47
4 4 6 2 4 -4 -2 -6 17 -33 41 -60 24 -27 44 -51 45 -54 0 -3 10 -13 23 -24 14
-10 22 -24 19 -32 -3 -8 0 -11 10 -7 7 3 14 0 14 -5 0 -6 16 -27 35 -48 19
-20 35 -39 35 -41 0 -2 6 -10 13 -17 6 -7 35 -39 62 -72 28 -32 64 -73 81 -91
17 -18 29 -34 27 -37 -6 -6 80 -92 90 -88 4 1 6 -2 5 -7 -3 -8 45 -67 142
-174 78 -88 128 -134 190 -177 19 -13 41 -31 48 -40 11 -13 12 -13 6 0 -7 13
-5 13 9 1 9 -7 14 -17 11 -22 -3 -5 2 -6 10 -3 8 3 33 -7 56 -21 23 -15 39
-21 35 -15 -6 9 -2 9 13 1 12 -6 24 -16 27 -21 4 -6 16 -8 28 -6 12 3 -1 -5
-30 -19 -28 -13 -57 -33 -62 -44 -29 -53 -5 -386 31 -428 6 -7 7 -13 2 -13 -5
0 -1 -5 9 -11 9 -5 17 -17 17 -24 0 -8 6 -15 14 -15 16 0 41 -28 33 -36 -7 -7
-458 -6 -465 1 -9 8 35 45 44 37 4 -4 4 -1 0 6 -4 6 1 24 12 40 11 15 25 54
32 87 15 75 16 428 0 433 -5 2 -10 9 -10 15 0 7 -34 29 -75 50 -41 22 -72 43
-69 48 3 5 -1 6 -9 3 -8 -3 -21 1 -28 9 -8 8 -32 25 -54 39 -59 37 -115 90
-108 101 3 6 2 7 -4 4 -19 -12 -303 290 -295 315 1 5 -1 7 -6 4 -12 -7 -64 52
-57 64 3 5 0 12 -6 16 -8 4 -9 3 -5 -4 4 -7 2 -12 -3 -12 -6 0 -11 6 -11 13 0
7 -12 21 -26 32 -14 10 -36 37 -49 60 -14 23 -35 50 -47 61 -28 25 -80 84 -74
84 2 0 -12 17 -31 38 -19 20 -51 55 -71 77 -20 22 -40 38 -45 37 -4 -1 -7 1
-6 5 2 14 -13 53 -20 50 -3 -2 -19 11 -36 27 -16 16 -25 26 -18 23 7 -5 10 -1
8 10 -1 10 -8 17 -15 15 -14 -3 -50 26 -50 40 0 5 -7 16 -15 25 -8 8 -13 19
-9 24 3 5 2 9 -3 8 -23 -4 -35 2 -29 17 3 8 2 13 -3 10 -9 -6 -47 44 -43 56 1
4 -6 4 -15 1 -10 -4 -14 -2 -10 4 7 11 -18 27 -40 26 -29 -1 -34 -3 -28 -13 3
-5 0 -10 -8 -10 -14 0 -39 -22 -73 -65 -8 -11 -12 -13 -8 -5 4 9 -2 7 -13 -5
-11 -11 -19 -22 -17 -24 2 -2 -8 -12 -21 -23 -14 -11 -23 -23 -20 -28 7 -11
-24 -22 -37 -13 -7 4 -8 1 -4 -6 5 -7 15 -10 23 -6 12 4 13 2 5 -8 -7 -8 -11
-107 -12 -292 -2 -343 8 -403 78 -471 15 -15 18 -21 7 -13 -18 13 -19 13 -6
-3 7 -10 19 -18 27 -18 7 0 16 -4 19 -10 3 -6 -1 -7 -9 -4 -9 3 -16 1 -16 -5
0 -8 -5 -9 -19 -1 -12 6 -22 6 -26 1 -3 -6 -89 -9 -207 -8 -192 2 -201 3 -204
22 -2 11 5 29 14 40 27 31 53 83 60 118 9 40 9 1827 0 1881 -3 21 -11 42 -18
46 -7 4 -9 13 -5 20 6 9 4 11 -5 5 -10 -6 -12 -4 -7 9 4 9 3 15 -2 12 -5 -3
-16 6 -25 19 -10 14 -22 23 -28 19 -7 -4 -8 -3 -4 4 4 7 1 12 -8 12 -8 0 -17
3 -20 8 -4 8 502 15 514 7z"/>
<path d="M2870 3663 c0 -10 -7 -79 -15 -153 -22 -205 -21 -211 30 -134 32 48
92 98 164 134 70 35 207 58 392 66 l169 7 -1 -569 0 -569 86 -92 c71 -76 205
-183 229 -183 3 0 6 317 6 705 l0 705 58 0 c236 -1 436 -33 535 -88 62 -34
143 -122 158 -173 26 -84 34 -44 34 161 l0 200 -922 0 c-872 0 -923 -1 -923
-17z m1796 -25 c5 -6 11 -208 6 -213 -3 -3 -23 14 -45 38 -21 23 -36 35 -32
27 3 -8 -3 -5 -14 8 -11 13 -22 23 -25 23 -12 -1 -76 33 -76 40 0 4 -10 5 -22
1 -15 -4 -19 -2 -14 7 5 8 3 11 -5 10 -8 -2 -45 3 -84 9 -97 17 -277 30 -355
27 -55 -2 -67 -6 -87 -29 l-23 -27 0 -654 c0 -362 -4 -656 -9 -659 -5 -3 -20
5 -35 19 -15 13 -29 24 -32 24 -10 -1 -94 80 -94 91 0 6 -4 9 -8 6 -5 -3 -19
12 -33 33 -13 22 -27 37 -31 35 -4 -3 -6 248 -5 557 1 435 -1 563 -11 567 -7
2 -9 9 -5 15 3 7 3 9 -2 5 -4 -4 -14 -3 -22 4 -29 24 -234 19 -398 -9 -16 -2
-39 -5 -50 -6 -11 -1 -26 -6 -33 -10 -7 -5 -20 -6 -28 -3 -9 3 -12 1 -9 -4 5
-9 -8 -12 -31 -9 -4 0 -10 -3 -13 -8 -8 -11 -76 -55 -120 -77 -30 -16 -33 -16
-28 -2 4 9 3 16 -2 16 -4 0 -4 17 0 38 5 20 11 54 14 74 4 23 12 38 22 40 19
4 1735 -1 1739 -4z"/>
</g>
</svg>
